<?xml version="1.0" encoding="UTF-8" standalone="no"?>
<!-- Created with Inkscape (http://www.inkscape.org/) -->

<svg
   width="590"
   height="88"
   viewBox="0 0 590 88.000004"
   version="1.1"
   id="svg5"
   inkscape:version="1.2.1 (9c6d41e410, 2022-07-14)"
   sodipodi:docname="logo.svg"
   xmlns:inkscape="http://www.inkscape.org/namespaces/inkscape"
   xmlns:sodipodi="http://sodipodi.sourceforge.net/DTD/sodipodi-0.dtd"
   xmlns="http://www.w3.org/2000/svg"
   xmlns:svg="http://www.w3.org/2000/svg">
  <sodipodi:namedview
     id="namedview7"
     pagecolor="#ffffff"
     bordercolor="#000000"
     borderopacity="0.25"
     inkscape:showpageshadow="2"
     inkscape:pageopacity="0.0"
     inkscape:pagecheckerboard="0"
     inkscape:deskcolor="#d1d1d1"
     inkscape:document-units="px"
     showgrid="false"
     showguides="false"
     inkscape:zoom="1"
     inkscape:cx="295"
     inkscape:cy="45.5"
     inkscape:window-width="1920"
     inkscape:window-height="1007"
     inkscape:window-x="0"
     inkscape:window-y="0"
     inkscape:window-maximized="1"
     inkscape:current-layer="svg5" />
  <defs
     id="defs2" />
  <path
     id="rect4969"
     style="fill:#443830;stroke-linecap:round;stroke-linejoin:round;fill-opacity:1"
     d="M 6,6 H 584 V 82 H 6 Z"
     sodipodi:nodetypes="ccccc" />
  <path
     id="rect234"
     style="fill:#c9bcb2;fill-opacity:1;stroke-width:0.0793749;stroke-linecap:round;stroke-linejoin:round"
     d="M 14,14 V 74 H 30 V 47 h 6 V 57 H 48 V 47 h 6 V 74 H 70 V 14 H 54 V 27 H 48 V 37 H 36 V 27 H 30 V 14 Z"
     sodipodi:nodetypes="ccccccccccccccccccccc" />
  <rect
     style="fill:#c9bcb2;fill-opacity:1;stroke-width:0.894427;stroke-linecap:round;stroke-linejoin:round"
     id="rect479"
     width="16"
     height="60"
     x="80"
     y="14" />
  <path
     id="rect481"
     style="fill:#c9bcb2;fill-opacity:1;stroke-width:0.942809;stroke-linecap:round;stroke-linejoin:round"
     d="m 106,14 v 60 h 16 V 47 h 6 v 10 h 6 v 17 h 16 V 14 h -16 v 23 h -6 V 27 h -6 V 14 Z" />
  <path
     id="rect508"
     style="fill:#c9bcb2;fill-opacity:1;stroke-width:0.935414;stroke-linecap:round;stroke-linejoin:round"
     d="m 160,14 c 0,20 0,40 0,60 14.66667,0 29.33333,0 44,0 V 60 h -28 v -9 h 28 V 37 h -28 v -9 h 28 V 14 c -14.66667,0 -29.33333,0 -44,0 z"
     sodipodi:nodetypes="ccccccccccccc" />
  <path
     id="rect578"
     style="fill:#c9bcb2;fill-opacity:1;stroke-linecap:round;stroke-linejoin:round"
     d="m 214,14 h 44 v 14 h -28 v 32 h 28 v 14 h -44 z"
     sodipodi:nodetypes="ccccccccc" />
  <path
     id="rect581"
     style="fill:#c9bcb2;fill-opacity:1;stroke-linecap:round;stroke-linejoin:round"
     d="m 268,14 h 16 v 46 h 28 v 14 h -44 z"
     sodipodi:nodetypes="ccccccc" />
  <path
     id="rect508-7"
     style="fill:#c9bcb2;fill-opacity:1;stroke-width:0.935414;stroke-linecap:round;stroke-linejoin:round"
     d="m 322,14 c 0,20 0,40 0,60 14.66667,0 29.33333,0 44,0 V 60 h -28 v -9 h 28 V 37 h -28 v -9 h 28 V 14 c -14.66667,0 -29.33333,0 -44,0 z"
     sodipodi:nodetypes="ccccccccccccc" />
  <path
     id="rect616"
     style="fill:#c9bcb2;fill-opacity:1;stroke-linecap:round;stroke-linejoin:round"
     d="m 376,14 v 60 h 16 V 57 h 12 v 17 h 16 V 14 Z m 10,9 h 8 v 8 h 8 v -8 h 8 v 8 h -8 v 6 h 6 v 12 h -6 v -6 h -8 v 6 h -6 V 37 h 6 v -6 h -8 z" />
  <path
     id="rect481-5"
     style="fill:#c9bcb2;fill-opacity:1;stroke-width:0.942809;stroke-linecap:round;stroke-linejoin:round"
     d="m 430,14 v 60 h 16 V 47 h 6 v 10 h 6 v 17 h 16 V 14 h -16 v 23 h -6 V 27 h -6 V 14 Z" />
  <path
     id="rect508-3"
     style="fill:#c9bcb2;fill-opacity:1;stroke-width:0.935414;stroke-linecap:round;stroke-linejoin:round"
     d="m 484,14 c 0,20 0,40 0,60 14.66667,0 29.33333,0 44,0 V 60 h -28 v -9 h 28 V 37 h -28 v -9 h 28 V 14 c -14.66667,0 -29.33333,0 -44,0 z"
     sodipodi:nodetypes="ccccccccccccc" />
  <path
     id="rect2003"
     style="fill:#c9bcb2;fill-opacity:1;stroke-linecap:round;stroke-linejoin:round"
     d="m 538,14 v 60 h 16 V 57 h 6 v 17 h 16 V 46 h -12 v -2 h 6 v -2 h 6 V 14 Z m 16,14 h 6 v 12 h -6 z"
     sodipodi:nodetypes="cccccccccccccccccccc" />
</svg>
